<svg xmlns="http://www.w3.org/2000/svg" viewBox="0 0 1000 1000" preserveAspectRatio="xMidYMid slice" role="img" aria-label="Placeholder — misty layered hills receding into the distance">
  <defs>
    <linearGradient id="sky2" x1="0" y1="0" x2="0" y2="1">
      <stop offset="0%" stop-color="#f4f3f0"/>
      <stop offset="100%" stop-color="#e1dfda"/>
    </linearGradient>
  </defs>
  <rect width="1000" height="1000" fill="url(#sky2)"/>
  <path d="M0,580 L180,500 L360,560 L540,480 L740,550 L920,490 L1000,520 L1000,1000 L0,1000 Z" fill="#d0cec8" opacity="0.95"/>
  <path d="M0,680 L200,620 L400,660 L620,600 L820,650 L1000,620 L1000,1000 L0,1000 Z" fill="#a09e99" opacity="0.92"/>
  <path d="M0,780 L220,740 L460,770 L700,740 L1000,760 L1000,1000 L0,1000 Z" fill="#706e69" opacity="0.93"/>
  <path d="M0,870 L260,840 L520,860 L780,840 L1000,855 L1000,1000 L0,1000 Z" fill="#3a3936" opacity="0.95"/>
  <text x="30" y="975" font-family="ui-monospace, SFMono-Regular, Menlo, Consolas, monospace" font-size="11" fill="#ffffff" opacity="0.55" letter-spacing="2">PLACEHOLDER · 1000 × 1000</text>
</svg>
